<?xml version="1.0" encoding="UTF-8" standalone="no"?>
<svg
   xmlns:dc="http://purl.org/dc/elements/1.1/"
   xmlns:cc="http://creativecommons.org/ns#"
   xmlns:rdf="http://www.w3.org/1999/02/22-rdf-syntax-ns#"
   xmlns:svg="http://www.w3.org/2000/svg"
   xmlns="http://www.w3.org/2000/svg"
   xmlns:sodipodi="http://sodipodi.sourceforge.net/DTD/sodipodi-0.dtd"
   xmlns:inkscape="http://www.inkscape.org/namespaces/inkscape"
   version="1.1"
   id="svg833"
   width="1024"
   height="1024"
   viewBox="0 0 1024 1024"
   sodipodi:docname="autill-logo-svg.svg"
   inkscape:version="1.0.2-2 (e86c870879, 2021-01-15)">
  <metadata
     id="metadata839">
    <rdf:RDF>
      <cc:Work
         rdf:about="">
        <dc:format>image/svg+xml</dc:format>
        <dc:type
           rdf:resource="http://purl.org/dc/dcmitype/StillImage" />
        <dc:title></dc:title>
      </cc:Work>
    </rdf:RDF>
  </metadata>
  <defs
     id="defs837" />
  <sodipodi:namedview
     pagecolor="#ffffff"
     bordercolor="#666666"
     borderopacity="1"
     objecttolerance="10"
     gridtolerance="10"
     guidetolerance="10"
     inkscape:pageopacity="0"
     inkscape:pageshadow="2"
     inkscape:window-width="1890"
     inkscape:window-height="1226"
     id="namedview835"
     showgrid="false"
     inkscape:zoom="0.62988281"
     inkscape:cx="444.76527"
     inkscape:cy="512"
     inkscape:window-x="-11"
     inkscape:window-y="146"
     inkscape:window-maximized="1"
     inkscape:current-layer="g841" />
  <g
     inkscape:groupmode="layer"
     inkscape:label="Image"
     id="g841">
    <path
       style="fill:#11273d;fill-opacity:1"
       d="M 486.39938,902.58403 C 405.70832,896.84343 329.67939,867.27183 267.00019,817.24833 250.27891,803.90325 220.79957,774.33952 207.5472,757.62512 175.89563,717.70493 154.42407,677.51379 139.11259,629.52708 119.61382,568.41723 115.89183,496.2427 128.90452,431.57876 c 15.83308,-78.67932 52.33114,-146.51164 107.6126,-200 56.9883,-55.13985 124.76517,-89.74326 204.53896,-104.42717 78.40735,-14.43238 163.74693,-3.68901 239.23003,30.1166 23.07781,10.33555 55.65007,30.76954 79.61327,49.94486 15.96802,12.77759 44.15708,40.5537 56.28281,55.45832 41.52062,51.03601 67.23352,106.70898 80.08926,173.40739 4.06744,21.10281 5.75903,38.44847 6.33893,65 0.97717,44.74107 -3.4741,81.87413 -14.29192,119.22509 -18.81282,64.95548 -52.08375,121.10057 -100.34716,169.33701 -37.70298,37.68187 -77.58373,64.19007 -128.4204,85.35907 -33.0706,13.771 -69.34495,22.8076 -106.65152,26.5689 -14.57246,1.4691 -52.07214,2.0416 -66.5,1.0152 z M 469.15393,745.00354 c 33.53469,-9.64674 71.77483,-29.00017 97.24545,-49.21617 10.22737,-8.11745 30.63848,-28.41264 38.42686,-38.20861 13.77011,-17.31959 24.29838,-35.32617 31.96014,-54.66166 4.18647,-10.56513 9.60331,-28.18137 8.88606,-28.89861 -0.22681,-0.22681 -3.98103,0.29675 -8.34272,1.16346 -12.05974,2.39639 -32.49058,2.15533 -45.36396,-0.53524 -16.50924,-3.45048 -31.87802,-9.9635 -44.51589,-18.86507 -4.75975,-3.35256 -5.00331,-3.41369 -6.35289,-1.59455 -22.99196,30.99147 -26.91642,35.92291 -28.80181,36.19212 -1.63621,0.23362 -3.76193,-1.87927 -9.55768,-9.5 -5.5928,-7.35387 -17.77298,-24.13813 -20.37527,-28.07707 -0.10051,-0.15214 -2.60827,1.37547 -5.57279,3.3947 -12.2596,8.35037 -31.98793,16.13179 -48.39005,19.08644 -10.82546,1.95008 -31.25032,2.13888 -41,0.37899 -22.42659,-4.04817 -41.47298,-12.98063 -56.01262,-26.26903 l -5.48738,-5.01517 v 7.92667 c 0,47.63802 19.27007,99.91301 51.52473,139.77402 9.54428,11.79503 29.8069,31.5542 40.39449,39.39085 9.114,6.74593 24.05933,15.90232 28.08078,17.20393 3.60341,1.16631 9.89264,0.17375 23.25455,-3.67 z m 121.10074,-2.02995 c 55.66321,-34.54944 95.64652,-94.85183 105.04581,-158.42893 1.61503,-10.92412 3.76375,-39.13438 3.03621,-39.86193 -1.10931,-1.1093 -6.27599,13.08421 -6.87848,18.89603 -4.61699,44.53721 -19.78475,83.67286 -44.37665,114.5 -19.73885,24.74362 -38.97147,41.48067 -69.18218,60.20532 -8.525,5.2838 -15.95,10.04401 -16.5,10.57823 -0.64776,0.62918 2.6475,0.76279 9.35529,0.3793 l 10.35529,-0.59201 z M 426.58072,541.97396 c 3.94974,-0.82559 11.14974,-3.43283 16,-5.79386 28.4761,-13.86175 46.31866,-41.82874 46.31866,-72.60134 0,-26.37491 -13.13652,-50.68992 -35.32791,-65.39011 -16.07454,-10.64821 -28.85292,-14.15999 -48.54718,-13.34184 -9.2497,0.38426 -14.36265,1.10994 -19.12491,2.71439 -21.59025,7.27399 -39.65895,23.2425 -49.08033,43.37553 -5.46084,11.66955 -7.22354,21.30719 -6.69261,36.59221 0.3924,11.29688 0.92186,14.87999 3.18436,21.54982 6.84597,20.18188 20.13808,35.85123 38.49964,45.38514 17.85754,9.2722 35.05708,11.63059 54.77028,7.51006 z m -28.41679,-32.93679 c -27.73492,-7.46935 -42.58408,-37.60164 -31.20593,-63.32384 11.50097,-25.99985 44.68004,-35.17683 68.84319,-19.0413 32.69223,21.83103 23.82832,72.40703 -14.43677,82.37382 -7.1977,1.87476 -16.21948,1.87139 -23.20049,-0.009 z m 236.07447,32.58276 c 13.62737,-3.48529 26.21018,-10.75037 36.58098,-21.12117 9.57106,-9.57106 15.56693,-19.48684 20.2677,-33.51808 2.03247,-6.06667 2.3123,-8.83819 2.3123,-22.90192 0,-17.77876 -0.92427,-22.32842 -7.11029,-35 -9.59133,-19.64709 -26.41984,-34.08308 -48.38971,-41.51012 -9.30399,-3.14526 -28.80061,-3.89295 -39.62491,-1.5196 -46.19794,10.12944 -74.01074,59.02907 -58.87877,103.51891 8.58429,25.23884 30.7322,45.68517 56.29594,51.97081 10.80589,2.65697 28.3312,2.69387 38.54676,0.0812 z m -29.33902,-32.13912 c -17.7449,-3.46547 -33.16123,-19.87174 -36.02256,-38.33569 -6.13996,-39.62077 38.16564,-67.01631 71.92437,-44.47309 7.4985,5.0073 12.01949,10.40231 16.31029,19.46348 3.12409,6.59732 3.2879,7.51621 3.2879,18.44325 0,11.16365 -0.10642,11.72285 -3.63863,19.11929 -9.33272,19.54266 -30.33907,29.98593 -51.86137,25.78276 z m -88.5,-112.14863 c 5.44153,-8.37986 19.38278,-22.88993 28.53649,-29.70081 34.02309,-25.31513 80.63942,-29.97441 121.90404,-12.18426 4.98271,2.14816 9.05947,3.70689 9.05947,3.46383 0,-1.15708 -9.03894,-13.69533 -15.13421,-20.99322 -34.17992,-40.92373 -88.51478,-64.33896 -149.29807,-64.33896 -60.42057,0 -113.20518,23.22956 -148.18371,65.21301 -8.5191,10.22516 -16.27957,21.37183 -14.28266,20.51475 0.76926,-0.33017 4.99865,-2.18436 9.39865,-4.12043 29.74175,-13.0868 65.85488,-13.7385 95.38454,-1.72132 21.97008,8.94079 43.90529,27.24825 54.68328,45.6395 1.44222,2.46097 2.91696,4.45499 3.2772,4.43117 0.36024,-0.0238 2.45498,-2.81529 4.65498,-6.20326 z"
       id="path845" />
  </g>
</svg>
